<?xml version="1.0" encoding="UTF-8"?>
<svg width="14px" height="16px" viewBox="0 0 14 16" version="1.1" xmlns="http://www.w3.org/2000/svg" xmlns:xlink="http://www.w3.org/1999/xlink">
    <!-- Generator: Sketch 52.4 (67378) - http://www.bohemiancoding.com/sketch -->
    <title>svg-icon_cardtoggle_expand</title>
    <desc>Created with Sketch.</desc>
    <g id="Symbols" stroke="none" stroke-width="1" fill="none" fill-rule="evenodd">
        <g id="Icon/Card-Toggle/Expand" fill="#333333">
            <path d="M7.46475298,15.7927865 L13.8072642,8.89117866 C14.0642453,8.61587832 14.0642453,8.17055849 13.8072642,7.89525815 L13.4190588,7.47929041 C13.1620777,7.20387289 12.7465339,7.20387289 12.4895528,7.47929041 L7,13.4726825 L1.51044718,7.48514911 C1.25346612,7.20979018 0.837922281,7.20979018 0.580941222,7.48514911 L0.192735794,7.90111685 C-0.0642452646,8.17647577 -0.0642452646,8.62173702 0.192735794,8.89709594 L6.53524702,15.7986452 C6.79222808,16.0680868 7.20777192,16.0680868 7.46475298,15.7927865 M6.53524702,8.52005923 L0.192735794,1.61850997 C-0.0642452646,1.34315104 -0.0642452646,0.897831214 0.192735794,0.622530875 L0.580941222,0.206563135 C0.837922281,-0.0688543783 1.25346612,-0.0688543783 1.51044718,0.206563135 L7,6.19995522 L12.4895528,0.212421836 C12.7465339,-0.0629370908 13.1620777,-0.0629370908 13.4190588,0.212421836 L13.8072642,0.628389575 C14.0642453,0.903748501 14.0642453,1.34900974 13.8072642,1.62436867 L7.46475298,8.52591793 C7.20777192,8.79535957 6.79222808,8.79535957 6.53524702,8.52005923" id="Expand"></path>
        </g>
    </g>
</svg>