<?xml version="1.0" encoding="UTF-8"?>
<svg width="24px" height="5px" viewBox="0 0 24 5" version="1.1" xmlns="http://www.w3.org/2000/svg" xmlns:xlink="http://www.w3.org/1999/xlink">
    <!-- Generator: Sketch 52.4 (67378) - http://www.bohemiancoding.com/sketch -->
    <title>svg-icon_ellipsismenu</title>
    <desc>Created with Sketch.</desc>
    <g id="Symbols" stroke="none" stroke-width="1" fill="none" fill-rule="evenodd">
        <g id="Icon/Ellipsis-Menu/Default" fill="#333333">
            <path d="M2.47058824,0 C1.10404412,0 0,1.1171875 0,2.5 C0,3.8828125 1.10404412,5 2.47058824,5 C3.83713235,5 4.94117647,3.8828125 4.94117647,2.5 C4.94117647,1.1171875 3.83713235,0 2.47058824,0 M21.5294118,0 C20.1628676,0 19.0588235,1.1171875 19.0588235,2.5 C19.0588235,3.8828125 20.1628676,5 21.5294118,5 C22.8959559,5 24,3.8828125 24,2.5 C24,1.1171875 22.8959559,0 21.5294118,0 M14.8235294,2.5 C14.8235294,3.8828125 13.7194853,5 12.3529412,5 C10.9863971,5 9.88235294,3.8828125 9.88235294,2.5 C9.88235294,1.1171875 10.9863971,0 12.3529412,0 C13.7194853,0 14.8235294,1.1171875 14.8235294,2.5"></path>
        </g>
    </g>
</svg>