<?xml version="1.0" encoding="UTF-8"?>
<svg width="133px" height="28px" viewBox="0 0 133 28" version="1.1" xmlns="http://www.w3.org/2000/svg" xmlns:xlink="http://www.w3.org/1999/xlink">
    <!-- Generator: Sketch 52.4 (67378) - http://www.bohemiancoding.com/sketch -->
    <title>svg-qmonitor_logo_header</title>
    <desc>Created with Sketch.</desc>
    <defs>
        <polygon id="path-1" points="0 28 157.988453 28 157.988453 0 0 0"></polygon>
    </defs>
    <g id="Symbols" stroke="none" stroke-width="1" fill="none" fill-rule="evenodd">
        <g id="qmonitor_logo_header">
            <g>
                <g id="Group-17">
                    <mask id="mask-2" fill="white">
                        <use xlink:href="#path-1"></use>
                    </mask>
                    <g id="Clip-14"></g>
                    <text id="Monitor" mask="url(#mask-2)" font-family="HelveticaNeue-Medium, Helvetica Neue" font-size="27" font-weight="400" fill="#FAFAFA">
                        <tspan x="36.0973487" y="22">Monitor</tspan>
                    </text>
                </g>
                <polygon id="Fill-18" fill="#FAFAFA" points="26.3333333 14.8235294 33.7395833 14.8235294 33.7395833 12.3529412 26.3333333 12.3529412"></polygon>
                <g id="Group-27" fill="#FAFAFA">
                    <path d="M13.4329625,20.491916 C13.4329625,21.7596871 12.3926748,22.7874138 11.1094089,22.7874138 C9.82614295,22.7874138 8.78585527,21.7596871 8.78585527,20.491916 C8.78585527,19.2241448 9.82614295,18.1964181 11.1094089,18.1964181 C12.3926748,18.1964181 13.4329625,19.2241448 13.4329625,20.491916" id="Fill-19"></path>
                    <path d="M11.109375,0 C4.97382935,0 0,4.91377284 0,10.9752348 C0,16.0549274 3.49318444,20.3284543 8.2357742,21.5796072 C8.0911829,21.2250282 8.01140839,20.8377865 8.01140839,20.4320615 C8.01140839,19.9124475 8.14215533,19.4230811 8.37264461,18.993971 C4.99583027,17.8628762 2.56563634,14.7054039 2.56563634,10.9871426 C2.56563634,6.31893766 6.39624081,2.53458582 11.1215251,2.53458582 C15.8467852,2.53458582 19.6773897,6.31893766 19.6773897,10.9871426 C19.6773897,14.7054039 17.2471958,17.8628762 13.8703814,18.993971 C14.1008707,19.4230811 14.2316176,19.9124475 14.2316176,20.4320615 C14.2316176,20.8350606 14.1529565,21.2198634 14.0101805,21.5725056 C18.7389501,20.3122186 22.21875,16.0452195 22.21875,10.9752348 C22.21875,4.91377284 17.2449206,0 11.109375,0" id="Fill-21"></path>
                    <path d="M13.4329625,25.7044974 C13.4329625,26.9722685 12.3926748,27.9999952 11.1094089,27.9999952 C9.82614295,27.9999952 8.78585527,26.9722685 8.78585527,25.7044974 C8.78585527,24.4367262 9.82614295,23.4089995 11.1094089,23.4089995 C12.3926748,23.4089995 13.4329625,24.4367262 13.4329625,25.7044974" id="Fill-23"></path>
                    <path d="M13.4329625,15.2792772 C13.4329625,16.5470483 12.3926748,17.5747751 11.1094089,17.5747751 C9.82614295,17.5747751 8.78585527,16.5470483 8.78585527,15.2792772 C8.78585527,14.0115061 9.82614295,12.9837793 11.1094089,12.9837793 C12.3926748,12.9837793 13.4329625,14.0115061 13.4329625,15.2792772" id="Fill-25"></path>
                </g>
            </g>
        </g>
    </g>
</svg>