<?xml version="1.0" encoding="UTF-8"?>
<svg width="18px" height="18px" viewBox="0 0 18 18" version="1.1" xmlns="http://www.w3.org/2000/svg" xmlns:xlink="http://www.w3.org/1999/xlink">
    <!-- Generator: Sketch 52.4 (67378) - http://www.bohemiancoding.com/sketch -->
    <title>svg-icon_settings</title>
    <desc>Created with Sketch.</desc>
    <g id="Symbols" stroke="none" stroke-width="1" fill="none" fill-rule="evenodd">
        <g id="Header/Default" transform="translate(-1212.000000, -13.000000)" fill="#FFFFFF">
            <path d="M1224.03275,22 C1224.03275,20.3991653 1222.67226,19.0967814 1221,19.0967814 C1219.32774,19.0967814 1217.96725,20.3991653 1217.96725,22 C1217.96725,23.6008347 1219.32774,24.9032186 1221,24.9032186 C1222.67226,24.9032186 1224.03275,23.6008347 1224.03275,22 M1228.15684,23.2737871 L1229.77238,24.1664906 C1229.95689,24.2684298 1230.04253,24.4792398 1229.97933,24.6740095 C1229.55967,25.9674659 1228.84319,27.1360114 1227.90611,28.1065574 C1227.76167,28.2562546 1227.52819,28.2901859 1227.34383,28.1883555 L1225.7295,27.2957973 C1225.05028,27.8528886 1224.26938,28.2851053 1223.42616,28.5706731 L1223.42616,30.3554993 C1223.42616,30.5593779 1223.27851,30.736075 1223.07069,30.7807483 C1221.74553,31.0656266 1220.32229,31.0803604 1218.93026,30.7810023 C1218.72214,30.7362565 1218.5738,30.5597771 1218.5738,30.3555719 L1218.5738,28.5706731 C1217.73054,28.2851053 1216.94968,27.8529249 1216.27046,27.2957973 L1214.65613,28.1883555 C1214.47174,28.2901859 1214.23829,28.2562546 1214.09386,28.1065574 C1213.15681,27.1360114 1212.44029,25.9674659 1212.02063,24.6740095 C1211.95744,24.4792761 1212.04307,24.2684661 1212.22758,24.1664906 L1213.84316,23.2737871 C1213.68091,22.4317086 1213.68091,21.5683277 1213.84316,20.7262491 L1212.22762,19.8335457 C1212.04311,19.7316065 1211.95747,19.5207965 1212.02067,19.3260268 C1212.44033,18.0325704 1213.15681,16.8640249 1214.09389,15.8934789 C1214.23833,15.7437817 1214.47178,15.7098141 1214.65617,15.8116807 L1216.2705,16.704239 C1216.94972,16.1471114 1217.73058,15.714931 1218.57384,15.4293631 L1218.57384,13.6445007 C1218.57384,13.4406221 1218.72149,13.2639613 1218.92931,13.2192517 C1220.25447,12.9343734 1221.67771,12.9196396 1223.06974,13.2189977 C1223.27786,13.2637435 1223.4262,13.4402229 1223.4262,13.6444281 L1223.4262,15.4293269 C1224.26946,15.7148584 1225.05035,16.1470751 1225.72954,16.7042027 L1227.34387,15.8116445 C1227.52822,15.7097778 1227.76171,15.7437454 1227.90614,15.8934426 C1228.84319,16.8639886 1229.55971,18.0325341 1229.97937,19.3259905 C1230.04256,19.5207239 1229.95693,19.7315339 1229.77242,19.8335094 L1228.15684,20.7262129 C1228.31909,21.5682914 1228.31909,22.4317086 1228.15684,23.2737871" id="icon_settings"></path>
        </g>
    </g>
</svg>