<?xml version="1.0" encoding="UTF-8"?>
<svg width="20px" height="15px" viewBox="0 0 20 15" version="1.1" xmlns="http://www.w3.org/2000/svg" xmlns:xlink="http://www.w3.org/1999/xlink">
    <!-- Generator: Sketch 52.4 (67378) - http://www.bohemiancoding.com/sketch -->
    <title>svg-icon_logout</title>
    <desc>Created with Sketch.</desc>
    <g id="Symbols" stroke="none" stroke-width="1" fill="none" fill-rule="evenodd">
        <g id="Header/Default" transform="translate(-1250.000000, -16.000000)" fill="#FFFFFF">
            <path d="M1262.77032,16.7617188 L1262.49304,17.0390625 C1262.30949,17.2226562 1262.30949,17.5195312 1262.49304,17.703125 L1267.64804,22.8359375 L1256.71711,22.8359375 C1256.45936,22.8359375 1256.24847,23.046875 1256.24847,23.3046875 L1256.24847,23.6953125 C1256.24847,23.953125 1256.45936,24.1640625 1256.71711,24.1640625 L1267.64804,24.1640625 L1262.49695,29.296875 C1262.3134,29.4804688 1262.3134,29.7773438 1262.49695,29.9609375 L1262.77423,30.2382812 C1262.95777,30.421875 1263.25458,30.421875 1263.43813,30.2382812 L1269.86234,23.8320312 C1270.04589,23.6484375 1270.04589,23.3515625 1269.86234,23.1679688 L1263.43422,16.7617188 C1263.25067,16.578125 1262.95387,16.578125 1262.77032,16.7617188 M1251.87454,16 L1257.02953,16 C1257.28728,16 1257.49817,16.2109375 1257.49817,16.46875 L1257.49817,16.78125 C1257.49817,17.0390625 1257.28728,17.25 1257.02953,17.25 L1251.87454,17.25 C1251.53088,17.25 1251.24969,17.53125 1251.24969,17.875 L1251.24969,29.125 C1251.24969,29.46875 1251.53088,29.75 1251.87454,29.75 L1257.02953,29.75 C1257.28728,29.75 1257.49817,29.9609375 1257.49817,30.21875 L1257.49817,30.53125 C1257.49817,30.7890625 1257.28728,31 1257.02953,31 L1251.87454,31 C1250.83964,31 1250,30.1601562 1250,29.125 L1250,17.875 C1250,16.8398438 1250.83964,16 1251.87454,16" id="icon_logout"></path>
        </g>
    </g>
</svg>